<?xml version="1.0" encoding="UTF-8" standalone="no"?>
<!-- Created with Inkscape (http://www.inkscape.org/) -->

<svg
   width="256"
   height="256"
   viewBox="0 0 67.733332 67.733333"
   version="1.1"
   id="svg1"
   inkscape:version="1.3.2 (091e20e, 2023-11-25, custom)"
   sodipodi:docname="chicken.svg"
   xmlns:inkscape="http://www.inkscape.org/namespaces/inkscape"
   xmlns:sodipodi="http://sodipodi.sourceforge.net/DTD/sodipodi-0.dtd"
   xmlns="http://www.w3.org/2000/svg"
   xmlns:svg="http://www.w3.org/2000/svg">
  <sodipodi:namedview
     id="namedview1"
     pagecolor="#505050"
     bordercolor="#eeeeee"
     borderopacity="1"
     inkscape:showpageshadow="0"
     inkscape:pageopacity="0"
     inkscape:pagecheckerboard="0"
     inkscape:deskcolor="#505050"
     inkscape:document-units="mm"
     inkscape:zoom="2.378199"
     inkscape:cx="87.671386"
     inkscape:cy="107.43424"
     inkscape:window-width="1920"
     inkscape:window-height="1057"
     inkscape:window-x="-8"
     inkscape:window-y="-8"
     inkscape:window-maximized="1"
     inkscape:current-layer="layer1" />
  <defs
     id="defs1" />
  <g
     inkscape:label="Layer 1"
     inkscape:groupmode="layer"
     id="layer1">
    <path
       style="fill:none;stroke:#ffffff;stroke-width:1.20251;stroke-linejoin:round;stroke-dasharray:none"
       d="m 48.18029,25.176069 c 0,0 -13.37839,-10.702713 -25.716239,0.891892 C 10.126202,37.662567 5.7700864,21.674118 11.810535,16.025792 c 3.148091,-2.94373 8.737767,3.403933 9.462406,3.238975 C 23.617634,18.989953 19.584165,5.8567691 27.836272,2.3691525 32.290867,0.48649132 36.42041,15.253594 38.652031,15.056838 41.129437,14.784638 44.03675,2.1966705 51.93594,3.1183187 62.979063,4.4067895 63.342468,15.513897 48.18029,25.176069 Z"
       id="path1"
       sodipodi:nodetypes="csscscsc" />
    <path
       style="fill:none;stroke:#ffffff;stroke-width:1.20251;stroke-linejoin:round;stroke-dasharray:none"
       d="m 7.1810744,58.944939 c 0,0 12.8263896,-35.819186 27.8542996,-34.160935 15.241033,1.681769 14.715479,5.991302 14.925702,12.403048 0.118368,3.610258 3.701954,2.711595 5.57086,6.937297 -8.957482,0.2315 -12.08772,-1.576659 -12.718382,3.573759 -0.317971,2.596766 3.034093,11.740219 -0.397184,15.136866 -4.297796,4.254418 -19.23589,2.259573 -35.2352956,-3.890035 z"
       id="path2"
       sodipodi:nodetypes="csscssc" />
    <circle
       style="fill:#ffffff;fill-opacity:1;stroke:#ffffff;stroke-width:1.20251;stroke-linejoin:round;stroke-dasharray:none"
       id="path3"
       cx="37.715694"
       cy="35.873169"
       r="2.1547668" />
    <path
       style="fill:#ffffff;fill-opacity:1;stroke:#ffffff;stroke-width:1.02411;stroke-linejoin:round;stroke-dasharray:none"
       d="m 45.580452,46.730453 c 0,0 -0.148997,11.038506 3.521124,8.795858 3.670116,-2.242645 -3.521124,-8.795858 -3.521124,-8.795858 z"
       id="path4" />
  </g>
</svg>
