<?xml version="1.0" encoding="UTF-8" standalone="no"?>
<!-- Created with Inkscape (http://www.inkscape.org/) -->

<svg
   width="256"
   height="256"
   viewBox="0 0 67.733332 67.733333"
   version="1.1"
   id="svg1"
   inkscape:version="1.3.2 (091e20e, 2023-11-25, custom)"
   sodipodi:docname="tooth.svg"
   inkscape:export-filename="tooth.png"
   inkscape:export-xdpi="96"
   inkscape:export-ydpi="96"
   xmlns:inkscape="http://www.inkscape.org/namespaces/inkscape"
   xmlns:sodipodi="http://sodipodi.sourceforge.net/DTD/sodipodi-0.dtd"
   xmlns="http://www.w3.org/2000/svg"
   xmlns:svg="http://www.w3.org/2000/svg">
  <sodipodi:namedview
     id="namedview1"
     pagecolor="#505050"
     bordercolor="#eeeeee"
     borderopacity="1"
     inkscape:showpageshadow="0"
     inkscape:pageopacity="0"
     inkscape:pagecheckerboard="0"
     inkscape:deskcolor="#505050"
     inkscape:document-units="mm"
     inkscape:zoom="3.3632812"
     inkscape:cx="128"
     inkscape:cy="128"
     inkscape:window-width="1920"
     inkscape:window-height="1057"
     inkscape:window-x="-8"
     inkscape:window-y="-8"
     inkscape:window-maximized="1"
     inkscape:current-layer="layer1" />
  <defs
     id="defs1">
    <rect
       x="34.787456"
       y="131.71661"
       width="196.53426"
       height="59.168409"
       id="rect1" />
  </defs>
  <g
     inkscape:label="Layer 1"
     inkscape:groupmode="layer"
     id="layer1">
    <g
       id="g2"
       transform="matrix(0.43997792,0,0,0.43997792,13.462957,8.4193832)"
       style="stroke:#ffffff;stroke-opacity:1;fill:#ffffff;fill-opacity:1">
      <path
         d="m 6.34,5.95 c 3.14,-3.02 7.01,-4.76 11.33,-5.37 4.41,-0.62 9.29,-0.05 14.32,1.55 2.76,0.88 4.91,1.62 6.67,2.23 3.33,1.15 5.12,1.78 6.74,1.78 1.95,0.01 4.3,-0.84 9.39,-2.66 1.58,-0.57 3.31,-1.19 3.48,-1.25 4.4,-1.55 8.68,-2.32 12.62,-2.23 3.98,0.09 7.62,1.03 10.7,2.89 4.38,2.65 6.8,6.2 8.05,10.23 1.2,3.84 1.3,8.04 1.07,12.29 -0.33,6.13 -1.39,12.13 -3.19,17.99 -1.72,5.61 -4.11,11.09 -7.16,16.45 1.55,9.74 1.98,18.5 1.71,26.24 -0.27,7.99 -1.26,14.88 -2.51,20.63 -1.36,6.3 -3.32,11.17 -5.49,13.69 -1.24,1.44 -2.63,2.26 -4.13,2.36 -1.59,0.1 -3.09,-0.59 -4.42,-2.19 -1.86,-2.24 -3.55,-6.67 -4.81,-13.78 -0.35,-1.97 -0.55,-4.14 -0.64,-5.08 l -0.03,-0.27 v 0 l -0.06,-0.56 C 58.6,86.89 57.24,73.11 44.95,72.97 39.09,74.31 36,77.07 34.28,81.15 32.4,85.62 31.95,91.87 31.43,99.51 v 0.03 c -0.07,1.06 -0.31,4.63 -0.74,7.23 -1.19,7.21 -2.9,11.7 -4.8,13.95 -1.33,1.56 -2.82,2.25 -4.41,2.16 -1.5,-0.08 -2.9,-0.88 -4.14,-2.3 -2.19,-2.5 -4.14,-7.35 -5.39,-13.73 C 10.92,101.58 10.13,94.59 9.73,86.02 9.38,78.46 9.34,69.66 9.71,59.72 7.6,54.89 5.72,50.03 4.19,45.12 2.61,40.04 1.4,34.89 0.7,29.64 0.12,25.25 -0.32,21.23 0.27,17.38 0.9,13.31 2.61,9.55 6.34,5.95 Z M 18.29,5.06 c -3.39,0.48 -6.4,1.82 -8.81,4.15 -2.9,2.8 -4.23,5.71 -4.71,8.82 -0.51,3.32 -0.11,6.98 0.43,11 0.66,4.94 1.81,9.84 3.33,14.72 1.52,4.89 3.42,9.74 5.55,14.6 v 0 c 0.13,0.3 0.2,0.64 0.19,0.99 -0.39,10.02 -0.35,18.88 0.01,26.47 0.38,8.29 1.15,15.05 2.15,20.16 1.1,5.61 2.67,9.71 4.34,11.62 0.42,0.48 0.76,0.75 0.99,0.76 0.14,0.01 0.37,-0.17 0.71,-0.56 1.41,-1.66 2.75,-5.42 3.79,-11.75 0.39,-2.35 0.62,-5.79 0.69,-6.81 V 99.2 c 0.54,-8.05 1.02,-14.63 3.2,-19.82 2.33,-5.52 6.41,-9.22 14.09,-10.91 v 0.01 c 0.15,-0.03 0.31,-0.05 0.47,-0.05 16.65,-0.07 18.22,15.84 19.81,32 l 0.05,0.56 v 0 0.01 l 0.03,0.28 c 0.08,0.84 0.26,2.78 0.61,4.73 1.11,6.3 2.44,10.02 3.82,11.68 0.32,0.39 0.54,0.57 0.66,0.56 0.22,-0.01 0.55,-0.29 0.97,-0.78 1.68,-1.96 3.29,-6.12 4.49,-11.71 1.2,-5.56 2.16,-12.18 2.42,-19.82 0.26,-7.67 -0.18,-16.38 -1.78,-26.12 -0.1,-0.51 -0.02,-1.06 0.27,-1.55 3.08,-5.29 5.46,-10.69 7.16,-16.21 1.69,-5.51 2.69,-11.14 2.99,-16.89 0.2,-3.79 0.13,-7.49 -0.88,-10.71 C 84.39,11.43 82.57,8.76 79.26,6.77 76.87,5.32 73.99,4.59 70.81,4.52 67.42,4.45 63.68,5.13 59.78,6.5 57.39,7.35 56.82,7.55 56.32,7.73 50.72,9.74 48.13,10.66 45.41,10.66 43.02,10.65 40.98,9.94 37.19,8.63 35.46,8.03 33.34,7.29 30.62,6.43 26.23,5.04 22.03,4.54 18.29,5.06 Z"
         id="path1"
         style="stroke:#ffffff;stroke-opacity:1;fill:#ffffff;fill-opacity:1" />
    </g>
  </g>
</svg>
